<mxfile host="app.diagrams.net" modified="2023-07-01T08:02:59.462Z" agent="Mozilla/5.0 (Windows NT 10.0; Win64; x64) AppleWebKit/537.36 (KHTML, like Gecko) Chrome/114.0.0.0 Safari/537.36" version="21.5.1" etag="hqrsQHYr35BSj0jVY64J" type="github">
  <diagram name="Page-1" id="OGrHSzkEQViK-J-muxr6">
    <mxGraphModel>
      <root>
        <mxCell id="0" />
        <mxCell id="1" parent="0" />
      </root>
    </mxGraphModel>
  </diagram>
</mxfile>
